<?xml version="1.0" encoding="utf-8"?>

<!DOCTYPE svg PUBLIC "-//W3C//DTD SVG 1.1//EN" "http://www.w3.org/Graphics/SVG/1.1/DTD/svg11.dtd">
<!-- Uploaded to: SVG Repo, www.svgrepo.com, Generator: SVG Repo Mixer Tools -->
<svg height="800px" width="800px" version="1.1" id="_x32_" xmlns="http://www.w3.org/2000/svg" xmlns:xlink="http://www.w3.org/1999/xlink" 
	 viewBox="0 0 512 512"  xml:space="preserve">
<style type="text/css">
	.st0{fill:#000000;}
</style>
<g>
	<path class="st0" d="M490.423,43.578H21.581C9.659,43.578,0,53.233,0,65.155s9.659,21.577,21.581,21.577h468.842
		c11.919,0,21.577-9.655,21.577-21.577S502.342,43.578,490.423,43.578z"/>
	<path class="st0" d="M459.125,107.1c-0.76,2.252-1.638,4.857-2.739,8.175l-0.21-0.218l-3.962,3.874l-0.084,0.084l-35.151,35.104
		L369.758,107.1h-21.758l58.102,57.858l-69.633,69.353l-69.634-69.353l58.102-57.858H303.2l-47.158,47.018L208.83,107.1h-21.762
		l58.098,57.858l-69.63,69.353l-69.638-69.353L164,107.1h-21.758l-47.216,47.018l-32.118-32.004l-7.084-7.058l-0.21,0.227
		c-1.071-3.244-1.983-5.958-2.731-8.184H31.798l-0.617,0.218c0,0,0.256,0.689,0.688,2.151c2.664,7.823,12.473,36.819,24.518,78.124
		c1.639,5.42,3.273,11.007,4.908,16.863c7.998,28.391,16.775,61.345,24.862,96.618c2.495,10.587,4.907,21.342,7.23,32.264
		c8.26,38.978,15.402,79.763,19.96,119.337c0.172,1.975,0.433,3.874,0.605,5.765c0.34,3.352,0.685,6.713,1.029,9.981l20.481-2.066
		c-0.324-3-0.643-6.076-0.962-9.142l3.18-3.159l42.406-42.33l40.793,40.608h21.682l-51.598-51.363l65.079-64.79l64.996,64.79
		l-51.531,51.363h21.615l40.793-40.608l44.343,44.221l1.269,1.26c-0.366,3.084-0.685,6.134-0.988,9.15l20.481,2.066
		c0.428-4.134,0.861-8.259,1.29-12.477c0.084-0.429,0.084-0.857,0.172-1.378c4.474-39.574,11.528-80.36,19.788-119.422
		c2.668-12.477,5.424-24.778,8.175-36.827c6.109-26.064,12.473-50.758,18.586-73.301c1.806-6.537,3.524-12.822,5.246-18.93
		c1.635-5.848,3.269-11.444,4.819-16.864c5.592-19.359,10.755-36.045,14.968-49.212c3.269-10.326,6.025-18.586,7.832-24.182
		c0.944-2.839,1.722-4.898,2.234-6.36c0.433-1.462,0.689-2.151,0.689-2.151l-0.618-0.218H459.125z M74.171,174.898
		c-0.361-1.218-0.726-2.47-1.087-3.655c-1.895-6.285-3.617-12.301-5.336-17.813c-0.74-2.412-1.445-4.697-2.147-6.974l7.004,6.974
		l11.549,11.528l-6.323,6.285L74.171,174.898z M107.549,301.982c-0.255-1.093-0.482-2.227-0.739-3.32
		c-9.032-39.506-18.85-76.166-27.782-106.952l3.608-3.605l12.39-12.3l69.633,69.343l-53.782,53.514L107.549,301.982z
		 M135.407,434.611l-3.184,3.168c-0.134-1.059-0.239-2.1-0.378-3.168c-3.441-26.761-7.999-53.774-13.162-80.191
		c-0.307-1.622-0.664-3.184-0.979-4.798l4.806,4.798l46.704,46.549L135.407,434.611z M180.086,390.121l-62.975-62.714l-5.042-5.024
		c-0.193-0.874-0.386-1.765-0.584-2.639l3.268-3.268l60.782-60.488l69.63,69.352L180.086,390.121z M186.413,245.148l69.629-69.343
		l69.55,69.343l-69.55,69.353L186.413,245.148z M393.836,351.748c-5.508,27.878-10.326,56.446-13.852,84.754
		c-0.063,0.436-0.092,0.857-0.156,1.293l-1.294-1.293l-35.747-35.533l49.321-49.22l2.176-2.16
		C394.138,350.312,393.983,351.017,393.836,351.748z M399.918,322.407l-2.332,2.327l-65.672,65.386l-65.08-64.781l69.634-69.352
		l62.466,62.21l1.546,1.529C400.284,320.618,400.099,321.508,399.918,322.407z M404.762,300.385
		c-0.122,0.521-0.231,1.068-0.352,1.588l-1.597-1.588l-55.471-55.236l69.638-69.343l13.99,13.939l1.97,1.957
		C423.957,222.975,413.951,260.256,404.762,300.385z M445.286,150.338l-0.083,0.084c-2.151,6.881-4.391,14.368-6.798,22.45
		c-0.193,0.656-0.395,1.37-0.592,2.034l-2.037-2.034l-7.928-7.915l14.591-14.535l0.08-0.084l3.97-3.958
		C446.085,147.707,445.698,148.959,445.286,150.338z"/>
</g>
</svg>